<svg width="20" height="20" viewBox="0 0 20 20" fill="none" xmlns="http://www.w3.org/2000/svg">
<rect opacity="0.3" width="20" height="20" rx="5" fill="#FD5E5F"/>
<path d="M14.0669 9.47283C13.8218 8.93019 13.4654 8.44315 13.0202 8.04218L12.6528 7.71059C12.6403 7.69965 12.6253 7.69187 12.609 7.68797C12.5928 7.68406 12.5758 7.68413 12.5596 7.68817C12.5434 7.69222 12.5285 7.70012 12.5161 7.71117C12.5037 7.72223 12.4943 7.7361 12.4886 7.75158L12.3245 8.2148C12.2222 8.5054 12.0341 8.80221 11.7677 9.09405C11.75 9.11268 11.7298 9.11765 11.7159 9.11889C11.702 9.12013 11.6805 9.11765 11.6616 9.10026C11.6439 9.08536 11.6351 9.06301 11.6363 9.04065C11.6831 8.29304 11.4558 7.4498 10.9583 6.53205C10.5467 5.76953 9.97473 5.17467 9.26008 4.75988L8.73862 4.4581C8.67044 4.41836 8.58332 4.47052 8.5871 4.54876L8.61488 5.14487C8.63382 5.5522 8.58584 5.91235 8.47221 6.21164C8.33332 6.578 8.13382 6.91827 7.87877 7.22378C7.70128 7.43609 7.5001 7.62813 7.27903 7.79629C6.74658 8.19886 6.31364 8.7147 6.01261 9.30517C5.71233 9.9008 5.55591 10.5566 5.55554 11.2214C5.55554 11.8076 5.67297 12.3751 5.90529 12.9104C6.12962 13.4257 6.45334 13.8934 6.85857 14.2876C7.26766 14.685 7.74241 14.998 8.27145 15.2153C8.81943 15.4413 9.40024 15.5556 9.99998 15.5556C10.5997 15.5556 11.1805 15.4413 11.7285 15.2165C12.2563 15.0005 12.7361 14.6854 13.1414 14.2888C13.5505 13.8914 13.8712 13.427 14.0947 12.9116C14.3266 12.3778 14.4456 11.8031 14.4444 11.2226C14.4444 10.6166 14.3182 10.0279 14.0669 9.47283Z" fill="#FF5A5B"/>
</svg>
