<svg width="192" height="32" viewBox="0 0 192 32" fill="none" xmlns="http://www.w3.org/2000/svg">
<rect width="192" height="32" fill="#363740"/>
<rect width="32" height="32" rx="16" fill="#3751FF"/>
<path d="M21.5 10.95H21.7V10.75V9V8.8H21.5H11H10.8V9V10.75V10.8328L10.8586 10.8914L15.9672 16L10.8586 21.1086L10.8 21.1672V21.25V23V23.2H11H21.5H21.7V23V21.25V21.05H21.5H13.9591L18.8677 16.1414L19.0091 16L18.8677 15.8586L13.9591 10.95H21.5Z" fill="#E0E4FF" stroke="#E0E4FF" stroke-width="0.4"/>
<path opacity="0.7" d="M47.6 23.171C46.27 23.171 45.1047 22.886 44.104 22.316C43.116 21.746 42.356 20.9417 41.824 19.903C41.292 18.8517 41.026 17.623 41.026 16.217C41.026 14.8237 41.292 13.6077 41.824 12.569C42.356 11.5177 43.116 10.7133 44.104 10.156C45.1047 9.586 46.27 9.301 47.6 9.301C48.512 9.301 49.367 9.44667 50.165 9.738C50.9757 10.0167 51.647 10.4093 52.179 10.916L51.381 12.702C50.773 12.208 50.165 11.8533 49.557 11.638C48.9617 11.41 48.322 11.296 47.638 11.296C46.3333 11.296 45.32 11.7203 44.598 12.569C43.8887 13.4177 43.534 14.6337 43.534 16.217C43.534 17.813 43.8887 19.0417 44.598 19.903C45.3073 20.7517 46.3207 21.176 47.638 21.176C48.322 21.176 48.9617 21.0683 49.557 20.853C50.165 20.625 50.773 20.264 51.381 19.77L52.179 21.556C51.647 22.0627 50.9757 22.4617 50.165 22.753C49.367 23.0317 48.512 23.171 47.6 23.171ZM63.6903 13.405V23H61.3533V21.461C61.062 21.993 60.644 22.411 60.0993 22.715C59.5546 23.0063 58.934 23.152 58.2373 23.152C57.4013 23.152 56.6603 22.9493 56.0143 22.544C55.3683 22.1387 54.868 21.5623 54.5133 20.815C54.1586 20.0677 53.9813 19.2 53.9813 18.212C53.9813 17.224 54.1586 16.35 54.5133 15.59C54.8806 14.8173 55.3873 14.222 56.0333 13.804C56.6793 13.3733 57.414 13.158 58.2373 13.158C58.934 13.158 59.5546 13.31 60.0993 13.614C60.644 13.9053 61.062 14.317 61.3533 14.849V13.405H63.6903ZM58.8833 21.29C59.6686 21.29 60.2766 21.0177 60.7073 20.473C61.138 19.9283 61.3533 19.162 61.3533 18.174C61.3533 17.1607 61.138 16.3817 60.7073 15.837C60.2766 15.2923 59.6623 15.02 58.8643 15.02C58.079 15.02 57.4646 15.305 57.0213 15.875C56.5906 16.4323 56.3753 17.2113 56.3753 18.212C56.3753 19.2 56.5906 19.96 57.0213 20.492C57.4646 21.024 58.0853 21.29 58.8833 21.29ZM66.677 9.016H69.033V23H66.677V9.016ZM76.3821 23.152C75.4067 23.152 74.5454 22.9493 73.7981 22.544C73.0634 22.1387 72.4934 21.5623 72.0881 20.815C71.6954 20.055 71.4991 19.1683 71.4991 18.155C71.4991 17.1417 71.6954 16.2613 72.0881 15.514C72.4934 14.754 73.0634 14.1713 73.7981 13.766C74.5454 13.3607 75.4067 13.158 76.3821 13.158C77.3447 13.158 78.1934 13.3607 78.9281 13.766C79.6627 14.1713 80.2264 14.754 80.6191 15.514C81.0244 16.2613 81.2271 17.1417 81.2271 18.155C81.2271 19.1683 81.0244 20.055 80.6191 20.815C80.2264 21.5623 79.6627 22.1387 78.9281 22.544C78.1934 22.9493 77.3447 23.152 76.3821 23.152ZM76.3631 21.29C77.1737 21.29 77.7881 21.0303 78.2061 20.511C78.6367 19.979 78.8521 19.1937 78.8521 18.155C78.8521 17.129 78.6367 16.35 78.2061 15.818C77.7754 15.2733 77.1674 15.001 76.3821 15.001C75.5841 15.001 74.9697 15.2733 74.5391 15.818C74.1084 16.35 73.8931 17.129 73.8931 18.155C73.8931 19.1937 74.1021 19.979 74.5201 20.511C74.9507 21.0303 75.5651 21.29 76.3631 21.29ZM88.8432 13.177C89.2105 13.177 89.5272 13.2277 89.7932 13.329L89.7742 15.495C89.3689 15.3303 88.9509 15.248 88.5202 15.248C87.7095 15.248 87.0889 15.4823 86.6582 15.951C86.2402 16.4197 86.0312 17.0403 86.0312 17.813V23H83.6752V16.122C83.6752 15.1087 83.6245 14.203 83.5232 13.405H85.7462L85.9362 15.096C86.1769 14.4753 86.5569 14.0003 87.0762 13.671C87.5955 13.3417 88.1845 13.177 88.8432 13.177ZM91.5156 13.405H93.8716V23H91.5156V13.405ZM94.0046 9.054V11.391H91.3636V9.054H94.0046ZM105.268 18.326H98.6557C98.7064 19.352 98.9597 20.112 99.4157 20.606C99.8844 21.0873 100.575 21.328 101.487 21.328C102.538 21.328 103.513 20.986 104.413 20.302L105.097 21.936C104.641 22.3033 104.077 22.601 103.406 22.829C102.747 23.0443 102.076 23.152 101.392 23.152C99.8211 23.152 98.5861 22.7087 97.6867 21.822C96.7874 20.9353 96.3377 19.7193 96.3377 18.174C96.3377 17.1987 96.5341 16.331 96.9267 15.571C97.3194 14.811 97.8704 14.222 98.5797 13.804C99.2891 13.3733 100.093 13.158 100.993 13.158C102.31 13.158 103.349 13.5887 104.109 14.45C104.881 15.2987 105.268 16.4703 105.268 17.965V18.326ZM101.05 14.868C100.416 14.868 99.8971 15.058 99.4917 15.438C99.0991 15.8053 98.8457 16.3437 98.7317 17.053H103.197C103.121 16.331 102.899 15.7863 102.532 15.419C102.177 15.0517 101.683 14.868 101.05 14.868ZM111.194 23.152C109.459 23.152 108.078 22.7467 107.052 21.936L107.717 20.264C108.743 21.024 109.915 21.404 111.232 21.404C111.802 21.404 112.239 21.309 112.543 21.119C112.86 20.929 113.018 20.663 113.018 20.321C113.018 20.0297 112.91 19.8017 112.695 19.637C112.48 19.4597 112.112 19.3077 111.593 19.181L109.997 18.82C108.249 18.44 107.375 17.547 107.375 16.141C107.375 15.5583 107.54 15.0453 107.869 14.602C108.198 14.146 108.661 13.7913 109.256 13.538C109.851 13.2847 110.542 13.158 111.327 13.158C112.011 13.158 112.67 13.2657 113.303 13.481C113.936 13.6837 114.494 13.9813 114.975 14.374L114.272 15.989C113.309 15.2797 112.321 14.925 111.308 14.925C110.763 14.925 110.339 15.0263 110.035 15.229C109.731 15.4317 109.579 15.7103 109.579 16.065C109.579 16.3437 109.668 16.5653 109.845 16.73C110.035 16.8947 110.352 17.034 110.795 17.148L112.429 17.509C113.379 17.7243 114.069 18.06 114.5 18.516C114.943 18.9593 115.165 19.542 115.165 20.264C115.165 21.1507 114.81 21.8537 114.101 22.373C113.392 22.8923 112.423 23.152 111.194 23.152ZM126.555 11.486H122.147V9.472H133.452V11.486H129.025V23H126.555V11.486ZM139.04 13.177C139.407 13.177 139.724 13.2277 139.99 13.329L139.971 15.495C139.566 15.3303 139.148 15.248 138.717 15.248C137.906 15.248 137.286 15.4823 136.855 15.951C136.437 16.4197 136.228 17.0403 136.228 17.813V23H133.872V16.122C133.872 15.1087 133.821 14.203 133.72 13.405H135.943L136.133 15.096C136.374 14.4753 136.754 14.0003 137.273 13.671C137.792 13.3417 138.381 13.177 139.04 13.177ZM150.704 13.405V23H148.367V21.461C148.076 21.993 147.658 22.411 147.113 22.715C146.568 23.0063 145.948 23.152 145.251 23.152C144.415 23.152 143.674 22.9493 143.028 22.544C142.382 22.1387 141.882 21.5623 141.527 20.815C141.172 20.0677 140.995 19.2 140.995 18.212C140.995 17.224 141.172 16.35 141.527 15.59C141.894 14.8173 142.401 14.222 143.047 13.804C143.693 13.3733 144.428 13.158 145.251 13.158C145.948 13.158 146.568 13.31 147.113 13.614C147.658 13.9053 148.076 14.317 148.367 14.849V13.405H150.704ZM145.897 21.29C146.682 21.29 147.29 21.0177 147.721 20.473C148.152 19.9283 148.367 19.162 148.367 18.174C148.367 17.1607 148.152 16.3817 147.721 15.837C147.29 15.2923 146.676 15.02 145.878 15.02C145.093 15.02 144.478 15.305 144.035 15.875C143.604 16.4323 143.389 17.2113 143.389 18.212C143.389 19.2 143.604 19.96 144.035 20.492C144.478 21.024 145.099 21.29 145.897 21.29ZM158.042 23.152C157.041 23.152 156.173 22.9493 155.439 22.544C154.704 22.1387 154.14 21.5687 153.748 20.834C153.355 20.0867 153.159 19.2127 153.159 18.212C153.159 17.2113 153.361 16.331 153.767 15.571C154.185 14.811 154.767 14.222 155.515 13.804C156.275 13.3733 157.149 13.158 158.137 13.158C158.821 13.158 159.479 13.2657 160.113 13.481C160.759 13.6963 161.272 13.994 161.652 14.374L160.987 16.046C160.581 15.7167 160.151 15.4697 159.695 15.305C159.239 15.1277 158.789 15.039 158.346 15.039C157.484 15.039 156.813 15.3113 156.332 15.856C155.85 16.388 155.61 17.1607 155.61 18.174C155.61 19.1873 155.844 19.96 156.313 20.492C156.794 21.024 157.472 21.29 158.346 21.29C158.789 21.29 159.239 21.2013 159.695 21.024C160.151 20.8467 160.581 20.5933 160.987 20.264L161.652 21.936C161.246 22.316 160.721 22.6137 160.075 22.829C159.429 23.0443 158.751 23.152 158.042 23.152ZM170.201 23L166.002 18.573V23H163.646V9.016H166.002V17.642L169.954 13.424H172.823L168.51 18.003L173.165 23H170.201ZM182.779 18.326H176.167C176.218 19.352 176.471 20.112 176.927 20.606C177.396 21.0873 178.086 21.328 178.998 21.328C180.05 21.328 181.025 20.986 181.924 20.302L182.608 21.936C182.152 22.3033 181.589 22.601 180.917 22.829C180.259 23.0443 179.587 23.152 178.903 23.152C177.333 23.152 176.098 22.7087 175.198 21.822C174.299 20.9353 173.849 19.7193 173.849 18.174C173.849 17.1987 174.046 16.331 174.438 15.571C174.831 14.811 175.382 14.222 176.091 13.804C176.801 13.3733 177.605 13.158 178.504 13.158C179.822 13.158 180.86 13.5887 181.62 14.45C182.393 15.2987 182.779 16.4703 182.779 17.965V18.326ZM178.561 14.868C177.928 14.868 177.409 15.058 177.003 15.438C176.611 15.8053 176.357 16.3437 176.243 17.053H180.708C180.632 16.331 180.411 15.7863 180.043 15.419C179.689 15.0517 179.195 14.868 178.561 14.868ZM190.358 13.177C190.726 13.177 191.042 13.2277 191.308 13.329L191.289 15.495C190.884 15.3303 190.466 15.248 190.035 15.248C189.225 15.248 188.604 15.4823 188.173 15.951C187.755 16.4197 187.546 17.0403 187.546 17.813V23H185.19V16.122C185.19 15.1087 185.14 14.203 185.038 13.405H187.261L187.451 15.096C187.692 14.4753 188.072 14.0003 188.591 13.671C189.111 13.3417 189.7 13.177 190.358 13.177Z" fill="#A4A6B3"/>
</svg>
