<svg width="20" height="20" viewBox="0 0 20 20" fill="none" xmlns="http://www.w3.org/2000/svg">
<rect width="20" height="20" rx="5" fill="#FEC400" fill-opacity="0.2"/>
<path opacity="0.9" d="M15.2083 12.9629H4.79166C4.69763 12.9629 4.61625 12.9263 4.54752 12.853C4.4788 12.7797 4.44444 12.6929 4.44444 12.5926C4.44444 11.142 4.86581 9.90547 5.70855 8.88309C6.55129 7.86071 7.63455 7.24536 8.95833 7.03702C9.05237 7.03702 9.13375 7.00037 9.20247 6.92707C9.27119 6.85377 9.30555 6.76696 9.30555 6.66665C9.30555 6.56634 9.27119 6.47954 9.20247 6.40624C9.13375 6.33293 9.05237 6.29628 8.95833 6.29628C8.86429 6.29628 8.78291 6.25963 8.71419 6.18633C8.64547 6.11303 8.61111 6.02622 8.61111 5.92591C8.61111 5.8256 8.64547 5.7388 8.71419 5.6655C8.78291 5.59219 8.86429 5.55554 8.95833 5.55554H11.0417C11.1357 5.55554 11.2171 5.59219 11.2858 5.6655C11.3545 5.7388 11.3889 5.8256 11.3889 5.92591C11.3889 6.02622 11.3545 6.11303 11.2858 6.18633C11.2171 6.25963 11.1357 6.29628 11.0417 6.29628C10.9476 6.29628 10.8662 6.33293 10.7975 6.40624C10.7288 6.47954 10.6944 6.56634 10.6944 6.66665C10.6944 6.76696 10.7288 6.85377 10.7975 6.92707C10.8662 7.00037 10.9476 7.03702 11.0417 7.03702C12.3654 7.24536 13.4487 7.86071 14.2914 8.88309C15.1342 9.90547 15.5556 11.142 15.5556 12.5926C15.5556 12.6929 15.5212 12.7797 15.4525 12.853C15.3838 12.9263 15.3024 12.9629 15.2083 12.9629ZM4.79166 13.7037H15.2083C15.3024 13.7037 15.3838 13.7403 15.4525 13.8136C15.5212 13.8869 15.5556 13.9738 15.5556 14.0741C15.5556 14.1744 15.5212 14.2612 15.4525 14.3345C15.3838 14.4078 15.3024 14.4444 15.2083 14.4444H4.79166C4.69763 14.4444 4.61625 14.4078 4.54752 14.3345C4.4788 14.2612 4.44444 14.1744 4.44444 14.0741C4.44444 13.9738 4.4788 13.8869 4.54752 13.8136C4.61625 13.7403 4.69763 13.7037 4.79166 13.7037Z" fill="#FEC400"/>
</svg>
